<?xml version="1.0" standalone="no"?>
<svg viewBox="0 0 200 200" xmlns="http://www.w3.org/2000/svg">
  <path fill="#8A3FFC" d="M43.7,-75.4C56.6,-68.1,67.2,-56.5,75.3,-43.2C83.4,-30,89,-15,89.2,0.1C89.4,15.2,84.1,30.4,75.8,43.2C67.5,56.1,56.1,66.7,42.9,74.8C29.8,82.9,14.9,88.6,0,88.7C-15,88.7,-29.9,83.3,-42.8,75C-55.7,66.8,-66.5,55.7,-74.6,42.7C-82.8,29.8,-88.2,14.9,-89,-0.5C-89.9,-15.9,-86.2,-31.8,-78.9,-46.1C-71.5,-60.4,-60.5,-73.1,-46.8,-79.9C-33,-86.8,-16.5,-87.8,-0.6,-86.8C15.3,-85.8,30.7,-82.7,43.7,-75.4Z" transform="translate(100 100)" />
</svg>
